<svg xmlns="http://www.w3.org/2000/svg" viewBox="0 0 900 520" font-family="Arial, Helvetica, sans-serif">
    <rect width="900" height="520" fill="#F7F6F2" rx="0"/>

  <text x="450" y="32" text-anchor="middle" font-size="16" font-weight="bold" fill="#1e293b">Risikomatrix Engadin / Risk Heat Map Engadin</text>
  <text x="450" y="52" text-anchor="middle" font-size="11" fill="#64748b">Teilregionen x Risikokategorien / Sub-regions x Risk Categories (2026-2036)</text>

  <!-- Column headers -->
  <text x="410" y="85" text-anchor="middle" font-size="11" font-weight="bold" fill="#475569">Hochwasser</text>
  <text x="410" y="97" text-anchor="middle" font-size="9" fill="#94a3b8">Flood</text>
  <text x="530" y="85" text-anchor="middle" font-size="11" font-weight="bold" fill="#475569">Trockenheit</text>
  <text x="530" y="97" text-anchor="middle" font-size="9" fill="#94a3b8">Drought</text>
  <text x="650" y="85" text-anchor="middle" font-size="11" font-weight="bold" fill="#475569">Permafrost</text>
  <text x="650" y="97" text-anchor="middle" font-size="9" fill="#94a3b8">Permafrost</text>
  <text x="770" y="85" text-anchor="middle" font-size="11" font-weight="bold" fill="#475569">Schneeverlust</text>
  <text x="770" y="97" text-anchor="middle" font-size="9" fill="#94a3b8">Snow loss</text>

  <!-- Risk colors: low=#dcfce7 medium=#fef9c3 high=#fed7aa very_high=#fecaca -->

  <!-- Row 1: Upper Engadin: flood=high, drought=medium, permafrost=high, snow=high -->
  <text x="175" y="125" text-anchor="middle" font-size="11" fill="#1e293b" font-weight="bold">Oberengadin</text>
  <text x="175" y="138" text-anchor="middle" font-size="9" fill="#94a3b8">Maloja-St.Moritz</text>
  <rect x="355" y="110" width="110" height="40" rx="0" fill="#fed7aa" stroke="#f97316"/>
  <text x="410" y="135" text-anchor="middle" font-size="12" font-weight="bold" fill="#9a3412">HOCH</text>
  <rect x="475" y="110" width="110" height="40" rx="0" fill="#fef9c3" stroke="#eab308"/>
  <text x="530" y="135" text-anchor="middle" font-size="12" font-weight="bold" fill="#854d0e">MITTEL</text>
  <rect x="595" y="110" width="110" height="40" rx="0" fill="#fed7aa" stroke="#f97316"/>
  <text x="650" y="135" text-anchor="middle" font-size="12" font-weight="bold" fill="#9a3412">HOCH</text>
  <rect x="715" y="110" width="110" height="40" rx="0" fill="#fed7aa" stroke="#f97316"/>
  <text x="770" y="135" text-anchor="middle" font-size="12" font-weight="bold" fill="#9a3412">HOCH</text>

  <!-- Row 2: Mid Engadin: flood=medium, drought=medium, permafrost=low, snow=high -->
  <text x="175" y="175" text-anchor="middle" font-size="11" fill="#1e293b" font-weight="bold">Mittelengadin</text>
  <text x="175" y="188" text-anchor="middle" font-size="9" fill="#94a3b8">Celerina-Zuoz</text>
  <rect x="355" y="160" width="110" height="40" rx="0" fill="#fef9c3" stroke="#eab308"/>
  <text x="410" y="185" text-anchor="middle" font-size="12" font-weight="bold" fill="#854d0e">MITTEL</text>
  <rect x="475" y="160" width="110" height="40" rx="0" fill="#fef9c3" stroke="#eab308"/>
  <text x="530" y="185" text-anchor="middle" font-size="12" font-weight="bold" fill="#854d0e">MITTEL</text>
  <rect x="595" y="160" width="110" height="40" rx="0" fill="#dcfce7" stroke="#22c55e"/>
  <text x="650" y="185" text-anchor="middle" font-size="12" font-weight="bold" fill="#166534">TIEF</text>
  <rect x="715" y="160" width="110" height="40" rx="0" fill="#fed7aa" stroke="#f97316"/>
  <text x="770" y="185" text-anchor="middle" font-size="12" font-weight="bold" fill="#9a3412">HOCH</text>

  <!-- Row 3: Lower Engadin: flood=medium, drought=high, permafrost=medium, snow=medium -->
  <text x="175" y="225" text-anchor="middle" font-size="11" fill="#1e293b" font-weight="bold">Unterengadin</text>
  <text x="175" y="238" text-anchor="middle" font-size="9" fill="#94a3b8">Zernez-Scuol</text>
  <rect x="355" y="210" width="110" height="40" rx="0" fill="#fef9c3" stroke="#eab308"/>
  <text x="410" y="235" text-anchor="middle" font-size="12" font-weight="bold" fill="#854d0e">MITTEL</text>
  <rect x="475" y="210" width="110" height="40" rx="0" fill="#fed7aa" stroke="#f97316"/>
  <text x="530" y="235" text-anchor="middle" font-size="12" font-weight="bold" fill="#9a3412">HOCH</text>
  <rect x="595" y="210" width="110" height="40" rx="0" fill="#fef9c3" stroke="#eab308"/>
  <text x="650" y="235" text-anchor="middle" font-size="12" font-weight="bold" fill="#854d0e">MITTEL</text>
  <rect x="715" y="210" width="110" height="40" rx="0" fill="#fef9c3" stroke="#eab308"/>
  <text x="770" y="235" text-anchor="middle" font-size="12" font-weight="bold" fill="#854d0e">MITTEL</text>

  <!-- Row 4: Val Bernina: flood=high, drought=low, permafrost=very_high, snow=medium -->
  <text x="175" y="280" text-anchor="middle" font-size="11" fill="#1e293b" font-weight="bold">Val Bernina</text>
  <rect x="355" y="260" width="110" height="40" rx="0" fill="#fed7aa" stroke="#f97316"/>
  <text x="410" y="285" text-anchor="middle" font-size="12" font-weight="bold" fill="#9a3412">HOCH</text>
  <rect x="475" y="260" width="110" height="40" rx="0" fill="#dcfce7" stroke="#22c55e"/>
  <text x="530" y="285" text-anchor="middle" font-size="12" font-weight="bold" fill="#166534">TIEF</text>
  <rect x="595" y="260" width="110" height="40" rx="0" fill="#fecaca" stroke="#ef4444"/>
  <text x="650" y="285" text-anchor="middle" font-size="12" font-weight="bold" fill="#991b1b">SEHR HOCH</text>
  <rect x="715" y="260" width="110" height="40" rx="0" fill="#fef9c3" stroke="#eab308"/>
  <text x="770" y="285" text-anchor="middle" font-size="12" font-weight="bold" fill="#854d0e">MITTEL</text>

  <!-- Row 5: Val Roseg: flood=high, drought=low, permafrost=very_high, snow=medium -->
  <text x="175" y="325" text-anchor="middle" font-size="11" fill="#1e293b" font-weight="bold">Val Roseg</text>
  <rect x="355" y="310" width="110" height="40" rx="0" fill="#fed7aa" stroke="#f97316"/>
  <text x="410" y="335" text-anchor="middle" font-size="12" font-weight="bold" fill="#9a3412">HOCH</text>
  <rect x="475" y="310" width="110" height="40" rx="0" fill="#dcfce7" stroke="#22c55e"/>
  <text x="530" y="335" text-anchor="middle" font-size="12" font-weight="bold" fill="#166534">TIEF</text>
  <rect x="595" y="310" width="110" height="40" rx="0" fill="#fecaca" stroke="#ef4444"/>
  <text x="650" y="335" text-anchor="middle" font-size="12" font-weight="bold" fill="#991b1b">SEHR HOCH</text>
  <rect x="715" y="310" width="110" height="40" rx="0" fill="#fef9c3" stroke="#eab308"/>
  <text x="770" y="335" text-anchor="middle" font-size="12" font-weight="bold" fill="#854d0e">MITTEL</text>

  <!-- Row 6: Silsersee: flood=medium, drought=medium, permafrost=low, snow=high -->
  <text x="175" y="375" text-anchor="middle" font-size="11" fill="#1e293b" font-weight="bold">Silsersee</text>
  <rect x="355" y="360" width="110" height="40" rx="0" fill="#fef9c3" stroke="#eab308"/>
  <text x="410" y="385" text-anchor="middle" font-size="12" font-weight="bold" fill="#854d0e">MITTEL</text>
  <rect x="475" y="360" width="110" height="40" rx="0" fill="#fef9c3" stroke="#eab308"/>
  <text x="530" y="385" text-anchor="middle" font-size="12" font-weight="bold" fill="#854d0e">MITTEL</text>
  <rect x="595" y="360" width="110" height="40" rx="0" fill="#dcfce7" stroke="#22c55e"/>
  <text x="650" y="385" text-anchor="middle" font-size="12" font-weight="bold" fill="#166534">TIEF</text>
  <rect x="715" y="360" width="110" height="40" rx="0" fill="#fed7aa" stroke="#f97316"/>
  <text x="770" y="385" text-anchor="middle" font-size="12" font-weight="bold" fill="#9a3412">HOCH</text>

  <!-- Row 7: Nationalpark: flood=low, drought=high, permafrost=medium, snow=low -->
  <text x="175" y="425" text-anchor="middle" font-size="11" fill="#1e293b" font-weight="bold">Nationalpark</text>
  <rect x="355" y="410" width="110" height="40" rx="0" fill="#dcfce7" stroke="#22c55e"/>
  <text x="410" y="435" text-anchor="middle" font-size="12" font-weight="bold" fill="#166534">TIEF</text>
  <rect x="475" y="410" width="110" height="40" rx="0" fill="#fed7aa" stroke="#f97316"/>
  <text x="530" y="435" text-anchor="middle" font-size="12" font-weight="bold" fill="#9a3412">HOCH</text>
  <rect x="595" y="410" width="110" height="40" rx="0" fill="#fef9c3" stroke="#eab308"/>
  <text x="650" y="435" text-anchor="middle" font-size="12" font-weight="bold" fill="#854d0e">MITTEL</text>
  <rect x="715" y="410" width="110" height="40" rx="0" fill="#dcfce7" stroke="#22c55e"/>
  <text x="770" y="435" text-anchor="middle" font-size="12" font-weight="bold" fill="#166534">TIEF</text>

  <!-- Row 8: Val Mustair: flood=low, drought=very_high, permafrost=low, snow=medium -->
  <text x="175" y="475" text-anchor="middle" font-size="11" fill="#1e293b" font-weight="bold">Val Mustair</text>
  <rect x="355" y="460" width="110" height="40" rx="0" fill="#dcfce7" stroke="#22c55e"/>
  <text x="410" y="485" text-anchor="middle" font-size="12" font-weight="bold" fill="#166534">TIEF</text>
  <rect x="475" y="460" width="110" height="40" rx="0" fill="#fecaca" stroke="#ef4444"/>
  <text x="530" y="485" text-anchor="middle" font-size="12" font-weight="bold" fill="#991b1b">SEHR HOCH</text>
  <rect x="595" y="460" width="110" height="40" rx="0" fill="#dcfce7" stroke="#22c55e"/>
  <text x="650" y="485" text-anchor="middle" font-size="12" font-weight="bold" fill="#166534">TIEF</text>
  <rect x="715" y="460" width="110" height="40" rx="0" fill="#fef9c3" stroke="#eab308"/>
  <text x="770" y="485" text-anchor="middle" font-size="12" font-weight="bold" fill="#854d0e">MITTEL</text>

  <text x="450" y="515" text-anchor="middle" font-size="8" fill="#94a3b8">Quellen / Sources: CH2018, FOEN, SLF — Wahrscheinlichkeit x Auswirkung / Probability x Impact composite assessment</text>
</svg>
